<svg xmlns="http://www.w3.org/2000/svg" enable-background="new 0 0 40 40" viewBox="0 0 40 40" id="jumia">
  <switch>
    <g>
      <path fill="#f90" d="M36,20c0,8.8-7.2,16-16,16S4,28.8,4,20S11.2,4,20,4S36,11.2,36,20z M13.3,30.3l6.7-4.9l6.7,4.9
			c0.2,0.1,0.4,0.1,0.6,0c0.2-0.1,0.2-0.4,0.2-0.6l-2.6-7.9l6.7-4.9c0.2-0.1,0.2-0.4,0.2-0.6c-0.1-0.2-0.3-0.3-0.5-0.3h-8.3
			l-2.6-7.9c-0.1-0.5-0.8-0.5-1,0L16.9,16H8.6c-0.2,0-0.4,0.1-0.5,0.3c-0.1,0.2,0,0.4,0.2,0.6l6.7,4.9l-2.6,7.9
			c-0.1,0.2,0,0.4,0.2,0.6c0.1,0.1,0.2,0.1,0.3,0.1S13.2,30.3,13.3,30.3z"></path>
    </g>
  </switch>
</svg>
