<?xml version="1.0" encoding="UTF-8" standalone="no"?>
<!-- Created with Inkscape (http://www.inkscape.org/) -->

<svg
   version="1.1"
   id="svg1"
   width="537.05402"
   height="490.53799"
   viewBox="0 0 537.05402 490.53799"
   xmlns="http://www.w3.org/2000/svg"
   xmlns:svg="http://www.w3.org/2000/svg">
  <defs
     id="defs1" />
  <g
     id="g34"
     transform="translate(-531.58163,-174.83503)">
    <path
       style="fill:#ffffff;stroke-width:1.7"
       d="m 923,571.46239 c -5.08298,-1.57945 -14.94691,-9.70624 -51.5,-42.43033 -31.64381,-28.32907 -39.49125,-35.01833 -43.16059,-36.79063 -2.99768,-1.4479 -3.77031,-1.33669 -14.99063,2.1576 -17.67326,5.5039 -27.42592,6.93292 -42.84878,6.27848 -21.28812,-0.90333 -38.47595,-6.4887 -56.14391,-18.24455 -43.33336,-28.83303 -60.58235,-84.07663 -41.29295,-132.24961 11.7834,-29.42766 38.5557,-54.39411 69.2203,-64.55125 19.27578,-6.38479 48.63803,-6.1313 67.67404,0.58425 34.5145,12.17606 58.81121,37.07748 71.30605,73.08075 l 3.19384,9.2029 0.0213,21.5 c 0.0258,25.99001 -0.88293,30.0462 -11.59127,51.74021 -3.86599,7.83212 -6.8847,15.11028 -6.70824,16.17369 0.17645,1.06341 13.59583,13.9376 29.82083,28.60931 16.225,14.67171 35.02794,32.14355 41.78432,38.82631 10.82956,10.71157 12.46756,12.77657 13.83167,17.43733 3.62836,12.39702 -3.28738,24.9593 -15.7834,28.67022 -6.1544,1.82766 -6.96687,1.828 -12.83259,0.005 z M 784.83794,460.96109 c 26.39268,-3.30936 49.71457,-22.41244 57.78326,-47.33057 3.19133,-9.85558 4.29759,-26.24207 2.4228,-35.88747 -6.27355,-32.2761 -33.01227,-55.5351 -66.044,-57.44918 -12.85129,-0.74469 -22.73614,1.33536 -35,7.36498 -8.03153,3.94876 -10.89628,6.0751 -18.53296,13.75595 -15.55383,15.64378 -21.07188,30.14041 -20.20655,53.0852 0.69495,18.4272 5.64661,30.48709 18.13365,44.165 11.72056,12.83831 27.04868,20.72363 44.10586,22.68957 6.04139,0.6963 9.22251,0.62411 17.33794,-0.39348 z"
       id="path35" />
    <path
       style="fill:#02c5fe"
       d="m 708.45543,663.36071 c -31.18866,-5.65949 -59.15362,-22.4244 -77.63771,-46.54358 -5.6944,-7.43039 -80.83321,-130.32288 -86.40647,-141.32117 -17.03703,-33.62095 -17.1112,-77.00012 -0.18908,-110.58771 5.13031,-10.18282 77.08222,-128.53889 84.52342,-139.03536 12.74621,-17.97968 34.67841,-34.65444 56.84371,-43.21755 20.27626,-7.83331 25.41403,-8.16186 120.03535,-7.676 83.37878,0.42812 85.99081,0.5193 96.08706,3.35401 12.10316,3.39819 30.0073,11.52606 39.18603,17.78913 8.60243,5.86983 22.12117,18.85361 29.02611,27.87752 8.33047,10.88687 81.59155,131.93016 87.56355,144.67401 14.8461,31.68064 14.8653,71.02531 0.05,102.49531 -5.3177,11.29564 -76.29057,128.88098 -86.21063,142.83068 -10.13795,14.25609 -28.21834,29.64752 -44.63464,37.99644 -9.17228,4.66479 -23.52345,9.21814 -35.86688,11.37986 -15.25444,2.67153 -167.63337,2.6585 -182.36992,-0.0156 z m 229.87193,-92.07823 c 6.33373,-2.6464 9.36261,-5.45238 12.48119,-11.5627 3.42032,-6.70152 3.235,-15.33205 -0.47522,-22.13189 -1.97782,-3.62482 -16.17477,-17.36412 -41.66666,-40.32351 -21.26667,-19.15392 -39.75134,-35.87543 -41.07704,-37.15892 -2.3183,-2.24447 -2.13018,-2.86404 4.92469,-16.21954 10.50061,-19.8786 13.33432,-31.02277 13.36293,-52.55259 0.0275,-20.68959 -2.12181,-30.45005 -10.60275,-48.14929 -13.89914,-29.00676 -39.35906,-50.37637 -70.89389,-59.50433 -13.64106,-3.94849 -42.89212,-4.2046 -56.38061,-0.49365 -35.91081,9.8798 -65.62298,37.44419 -77.43934,71.84155 -19.99378,58.20179 11.09901,120.91329 69.97816,141.13995 21.46828,7.37496 48.64715,7.29228 69.72393,-0.21212 6.45549,-2.29848 13.30273,-4.27874 15.2161,-4.40058 2.82076,-0.17962 11.52254,7.06368 46,38.29005 23.39821,21.19186 44.9197,39.61752 47.85448,40.97072 6.54294,3.01687 12.53829,3.16423 18.99403,0.46685 z M 757.69935,459.28128 c -24.1609,-6.50744 -44.09347,-26.31907 -50.42917,-50.12318 -2.55599,-9.60324 -2.46086,-28.22343 0.19033,-37.24943 10.45942,-35.60933 46.37424,-57.5695 81.84131,-50.04198 18.50666,3.92785 32.70809,13.1296 43.41043,28.12759 16.79985,23.54287 17.67845,54.88133 2.20834,78.76856 -9.82183,15.1658 -24.83093,25.97636 -42.42867,30.55999 -9.51657,2.47875 -25.50606,2.45965 -34.79257,-0.0416 z"
       id="path34" />
  </g>
</svg>
