<?xml version="1.0" encoding="UTF-8" standalone="no"?>
<svg
   version="1.0"
   width="225pt"
   height="225pt"
   viewBox="0 0 225 225"
   preserveAspectRatio="xMidYMid"
   id="svg2"
   xmlns="http://www.w3.org/2000/svg"
   xmlns:svg="http://www.w3.org/2000/svg">
  <defs
     id="defs2" />
  <metadata
     id="metadata1">
Created by potrace 1.16, written by Peter Selinger 2001-2019
</metadata>
  <rect
     style="fill:#f1e004;fill-opacity:1;stroke-width:1.275"
     id="rect2"
     width="225"
     height="225"
     x="3.5527137e-15"
     y="3.5527137e-15"
     ry="3.4756384" />
  <g
     transform="matrix(0.1,0,0,-0.1,0,225)"
     fill="#000000"
     stroke="none"
     id="g2">
    <path
       d="m 1042,1862 c -13,-9 -165,-263 -160,-268 2,-1 30,7 63,18 63,21 179,28 246,15 l 37,-8 61,105 c 34,57 61,107 61,110 0,3 -23,12 -52,21 -55,16 -233,21 -256,7 z"
       id="path1" />
    <path
       d="m 1523,1603 -62,-108 38,-40 c 89,-92 133,-204 133,-335 0,-145 -49,-257 -160,-362 C 1274,569 961,572 763,766 658,868 604,1008 612,1156 l 3,73 -30,-18 c -16,-10 -68,-40 -113,-66 -46,-26 -86,-54 -89,-62 -8,-21 14,-142 39,-220 40,-120 152,-266 263,-343 63,-44 178,-96 255,-117 88,-24 280,-23 369,1 468,128 699,628 485,1050 -19,38 -49,88 -66,110 -36,47 -130,146 -138,146 -3,0 -34,-48 -67,-107 z"
       id="path2" />
  </g>
</svg>
